<svg xmlns="http://www.w3.org/2000/svg" xmlns:xlink="http://www.w3.org/1999/xlink" width="500" zoomAndPan="magnify" viewBox="0 0 375 149.999998" height="200" preserveAspectRatio="xMidYMid meet" version="1.0"><defs><g/></defs><g fill="#302e2a" fill-opacity="1"><g transform="translate(18.481033, 83.839411)"><g><path d="M 4.765625 -1.632812 C 12.253906 -1.632812 25.257812 -13.753906 30.296875 -18.449219 C 31.386719 -19.335938 33.089844 -20.222656 34.449219 -20.222656 L 42.074219 -20.222656 C 42.824219 -20.222656 43.640625 -19.949219 43.640625 -19.199219 C 43.640625 -18.996094 43.574219 -18.722656 43.4375 -18.449219 C 40.851562 -13.277344 37.785156 -8.171875 37.308594 -3.609375 L 37.242188 -2.925781 C 37.242188 -1.632812 37.71875 -0.476562 39.214844 -0.476562 C 40.304688 -0.476562 41.121094 -1.089844 41.121094 -2.65625 L 41.121094 -2.925781 C 41.121094 -6.46875 43.914062 -12.800781 47.863281 -18.859375 C 48.746094 -19.949219 49.699219 -20.425781 51.132812 -20.699219 C 52.289062 -20.902344 56.238281 -21.71875 56.238281 -23.082031 C 56.238281 -23.558594 55.828125 -23.964844 55.148438 -23.964844 C 54.875 -23.964844 54.535156 -23.898438 54.195312 -23.761719 C 53.785156 -23.625 52.765625 -23.148438 52.015625 -23.148438 C 51.609375 -23.148438 51.265625 -23.351562 51.265625 -23.691406 C 51.265625 -23.828125 51.402344 -24.101562 51.609375 -24.441406 L 59.300781 -34.65625 C 62.5 -38.875 65.496094 -42.621094 66.722656 -44.933594 C 67.472656 -46.363281 67.8125 -47.589844 67.8125 -48.542969 C 67.8125 -50.519531 66.519531 -51.675781 64.542969 -51.675781 C 62.910156 -51.675781 60.730469 -50.859375 58.550781 -49.15625 C 51.335938 -43.503906 44.800781 -36.832031 38.261719 -30.230469 L 32.40625 -24.304688 C 30.910156 -22.738281 29.414062 -22.46875 27.027344 -22.128906 L 22.671875 -21.445312 C 15.863281 -20.085938 0 -14.773438 0 -6.398438 C 0 -3.539062 1.839844 -1.632812 4.765625 -1.632812 Z M 36.425781 -24.644531 L 40.644531 -29.003906 C 43.574219 -32 59.777344 -48.746094 63.113281 -48.746094 C 63.660156 -48.746094 64 -48.339844 64 -47.726562 C 64 -47.25 63.792969 -46.570312 63.386719 -45.886719 C 62.296875 -44.117188 59.367188 -40.304688 56.167969 -36.152344 L 50.042969 -28.253906 L 46.910156 -23.964844 C 46.160156 -23.011719 45.003906 -22.605469 43.914062 -22.605469 L 37.242188 -22.605469 C 36.492188 -22.605469 35.742188 -22.875 35.742188 -23.421875 C 35.742188 -23.761719 35.949219 -24.167969 36.425781 -24.644531 Z M 2.859375 -6.058594 C 2.859375 -7.828125 4.5625 -10.484375 8.101562 -13.070312 C 11.640625 -15.660156 16.679688 -18.179688 23.351562 -19.269531 L 25.394531 -19.609375 C 25.667969 -19.675781 26.007812 -19.675781 26.28125 -19.675781 C 26.757812 -19.675781 27.097656 -19.609375 27.097656 -19.335938 C 27.097656 -19.199219 27.027344 -18.925781 26.757812 -18.722656 C 22.535156 -15.523438 10.621094 -4.085938 5.175781 -4.085938 C 3.675781 -4.085938 2.859375 -4.832031 2.859375 -6.058594 Z M 2.859375 -6.058594 "/></g></g></g><g fill="#302e2a" fill-opacity="1"><g transform="translate(69.066691, 83.839411)"><g><path d="M -5.992188 -3.269531 C -5.992188 -2.382812 -5.308594 -1.703125 -4.425781 -1.703125 C -3.878906 -1.703125 -3.402344 -1.90625 -3.0625 -2.382812 L 4.289062 -13.140625 C 6.195312 -15.25 9.464844 -17.632812 12.460938 -17.632812 C 14.160156 -17.632812 15.25 -16.816406 15.25 -15.453125 C 15.25 -14.230469 14.367188 -11.300781 13.277344 -11.300781 C 13.207031 -11.300781 13.070312 -11.371094 12.050781 -11.777344 C 11.03125 -12.1875 9.804688 -12.800781 8.304688 -12.800781 L 7.964844 -12.800781 L 7.148438 -12.730469 C 4.628906 -12.527344 2.449219 -11.097656 2.109375 -7.761719 L 2.042969 -7.148438 C 2.042969 -3.949219 4.355469 -2.316406 7.285156 -2.316406 C 10.960938 -2.316406 14.023438 -4.96875 16.066406 -7.964844 L 18.585938 -7.761719 L 18.996094 -7.761719 C 20.832031 -7.761719 21.785156 -8.714844 22.945312 -9.871094 C 24.304688 -11.234375 24.511719 -11.4375 24.511719 -11.777344 C 24.511719 -12.324219 23.964844 -12.800781 23.351562 -12.800781 C 23.011719 -12.800781 22.671875 -12.730469 22.332031 -12.390625 L 21.855469 -11.914062 C 20.628906 -10.6875 19.8125 -9.941406 18.042969 -9.941406 L 17.226562 -10.007812 C 18.179688 -11.710938 18.722656 -13.546875 18.722656 -15.183594 C 18.722656 -18.179688 16.816406 -20.492188 11.640625 -20.492188 C 11.4375 -20.425781 11.097656 -20.355469 10.757812 -20.355469 C 10.347656 -20.355469 9.941406 -20.492188 9.941406 -20.96875 C 9.941406 -21.992188 11.574219 -22.945312 12.390625 -23.421875 C 16.273438 -25.667969 19.472656 -27.710938 21.582031 -30.160156 C 22.945312 -31.796875 23.421875 -33.019531 23.421875 -34.109375 C 23.421875 -35.878906 22.332031 -37.105469 20.628906 -37.105469 C 19.199219 -37.105469 17.363281 -36.152344 15.386719 -33.90625 C 14.230469 -32.542969 12.800781 -30.773438 11.507812 -28.867188 L -5.71875 -4.152344 C -5.921875 -3.878906 -5.992188 -3.609375 -5.992188 -3.269531 Z M 4.355469 -8.101562 C 4.355469 -10.078125 6.195312 -10.6875 7.625 -10.6875 C 8.78125 -10.6875 11.914062 -10.28125 11.914062 -8.851562 C 11.914062 -7.285156 7.964844 -5.789062 6.332031 -5.789062 C 5.308594 -5.789062 4.355469 -6.332031 4.355469 -7.761719 Z M 20.355469 -33.632812 C 20.699219 -33.632812 20.96875 -33.359375 20.96875 -33.019531 C 20.96875 -31.320312 15.183594 -26.960938 14.296875 -26.960938 C 14.230469 -26.960938 14.160156 -27.027344 14.160156 -27.097656 C 14.160156 -27.914062 18.722656 -33.632812 20.355469 -33.632812 Z M 20.355469 -33.632812 "/></g></g></g><g fill="#302e2a" fill-opacity="1"><g transform="translate(91.465994, 83.839411)"><g><path d="M -2.042969 -7.148438 C -2.042969 -4.902344 -0.410156 -3.609375 1.90625 -3.609375 C 4.832031 -3.609375 8.511719 -5.175781 13.140625 -10.554688 L 13.546875 -11.03125 C 13.820312 -11.371094 14.023438 -11.640625 14.023438 -11.984375 C 14.023438 -12.527344 13.480469 -13.003906 12.867188 -13.003906 C 12.59375 -13.003906 12.253906 -12.867188 11.984375 -12.59375 L 11.507812 -12.1875 C 9.804688 -10.757812 5.039062 -5.921875 2.65625 -5.921875 C 1.90625 -5.921875 1.363281 -6.398438 1.363281 -7.558594 C 1.363281 -7.828125 1.363281 -8.171875 1.429688 -8.304688 C 2.179688 -9.804688 5.175781 -14.023438 7.21875 -16.613281 L 8.917969 -18.722656 C 9.257812 -19.132812 9.394531 -19.609375 9.394531 -19.949219 C 9.394531 -20.765625 8.714844 -21.308594 7.964844 -21.308594 C 7.351562 -21.308594 6.605469 -20.96875 5.992188 -20.152344 L 4.289062 -17.972656 C 2.585938 -15.796875 -0.203125 -12.59375 -1.363281 -10.078125 C -1.839844 -8.988281 -2.042969 -8.035156 -2.042969 -7.148438 Z M 8.714844 -23.691406 C 8.714844 -22.738281 9.464844 -21.992188 10.417969 -21.992188 C 11.371094 -21.992188 12.1875 -22.738281 12.1875 -23.691406 C 12.1875 -24.644531 11.371094 -25.464844 10.417969 -25.464844 C 9.464844 -25.464844 8.714844 -24.644531 8.714844 -23.691406 Z M 8.714844 -23.691406 "/></g></g></g><g fill="#302e2a" fill-opacity="1"><g transform="translate(103.312431, 83.839411)"><g><path d="M -11.03125 19.402344 C -7.421875 19.402344 -3.199219 16.476562 2.316406 10.960938 L 2.519531 10.757812 C 4.96875 8.304688 6.605469 5.175781 8.851562 1.769531 C 9.871094 0.273438 10.417969 -0.542969 13.957031 -2.179688 C 18.519531 -4.289062 22.945312 -7.148438 26.824219 -10.960938 L 26.894531 -11.03125 C 27.097656 -11.300781 27.234375 -11.574219 27.234375 -11.847656 C 27.234375 -12.460938 26.6875 -13.003906 26.074219 -13.003906 C 25.804688 -13.003906 25.464844 -12.867188 25.191406 -12.527344 C 22.398438 -9.054688 15.183594 -4.5625 13.480469 -4.5625 C 13.34375 -4.5625 13.277344 -4.628906 13.277344 -4.832031 C 13.277344 -4.902344 13.277344 -5.105469 13.414062 -5.242188 C 17.292969 -9.125 19.335938 -14.230469 22.535156 -17.90625 C 22.808594 -18.179688 22.945312 -18.449219 22.945312 -18.722656 C 22.945312 -19.472656 21.921875 -20.015625 21.105469 -20.015625 C 20.96875 -20.015625 20.765625 -19.949219 20.628906 -19.878906 C 19.269531 -19.878906 18.65625 -20.222656 17.90625 -20.5625 L 17.496094 -20.765625 C 16.40625 -21.308594 15.25 -21.652344 13.957031 -21.652344 C 8.171875 -21.652344 -1.769531 -13.546875 -1.769531 -7.761719 C -1.769531 -5.515625 -0.203125 -3.8125 2.382812 -3.8125 C 3.609375 -3.8125 5.105469 -4.222656 6.742188 -5.105469 L 8.101562 -5.855469 C 8.648438 -6.195312 9.191406 -6.398438 9.53125 -6.398438 C 9.941406 -6.398438 10.210938 -6.195312 10.210938 -5.921875 C 10.210938 -5.789062 10.144531 -5.71875 10.144531 -5.582031 L 8.78125 -3.539062 C 7.761719 -2.042969 6.535156 -1.566406 6.195312 -1.429688 L -0.203125 1.15625 C -4.5625 2.925781 -8.648438 4.289062 -11.777344 6.535156 C -15.386719 9.125 -16.886719 11.914062 -16.886719 14.296875 C -16.886719 17.226562 -14.570312 19.402344 -11.03125 19.402344 Z M -14.296875 14.296875 C -14.296875 12.59375 -13.003906 10.417969 -10.078125 8.375 C -8.101562 7.011719 1.90625 2.179688 4.152344 2.179688 C 4.5625 2.179688 4.832031 2.246094 4.832031 2.585938 L 4.765625 2.722656 C 1.703125 7.421875 -4.699219 16.953125 -10.960938 16.953125 C -13.140625 16.953125 -14.296875 15.863281 -14.296875 14.296875 Z M 13.683594 -19.199219 C 15.183594 -19.199219 16.339844 -18.382812 16.339844 -17.15625 C 16.339844 -13.890625 8.238281 -7.21875 4.425781 -7.21875 C 3.0625 -7.21875 1.972656 -8.035156 1.972656 -9.53125 C 1.972656 -13.617188 9.734375 -19.199219 13.683594 -19.199219 Z M 13.683594 -19.199219 "/></g></g></g><g fill="#302e2a" fill-opacity="1"><g transform="translate(128.435051, 83.839411)"><g><path d="M -1.566406 -7.964844 C -1.566406 -5.445312 0.203125 -3.609375 2.859375 -3.609375 C 3.949219 -3.609375 5.242188 -3.746094 6.605469 -4.628906 L 8.101562 -5.582031 C 9.125 -6.195312 10.007812 -6.742188 10.621094 -6.742188 C 10.960938 -6.742188 11.234375 -6.605469 11.371094 -6.265625 C 11.914062 -4.5625 13.546875 -3.539062 15.453125 -3.539062 C 19.609375 -3.539062 24.917969 -8.171875 28.117188 -10.960938 C 28.460938 -11.300781 28.664062 -11.710938 28.664062 -12.050781 C 28.664062 -12.59375 28.253906 -13.070312 27.640625 -13.070312 C 27.234375 -13.070312 26.824219 -12.867188 26.347656 -12.460938 C 24.578125 -10.960938 20.222656 -6.742188 17.089844 -6.742188 C 15.929688 -6.742188 15.660156 -7.351562 15.660156 -8.035156 C 15.660156 -10.960938 20.222656 -15.726562 21.992188 -17.089844 C 22.738281 -17.703125 22.945312 -18.179688 22.945312 -18.519531 C 22.945312 -19.335938 22.128906 -20.085938 21.242188 -20.085938 C 21.039062 -20.085938 20.832031 -20.015625 20.628906 -19.949219 C 19.335938 -19.949219 18.722656 -20.289062 17.90625 -20.628906 L 17.566406 -20.765625 C 16.40625 -21.242188 15.25 -21.652344 14.023438 -21.652344 C 8.171875 -21.652344 -1.566406 -13.753906 -1.566406 -7.964844 Z M 2.246094 -9.394531 C 2.246094 -13.546875 10.210938 -19.335938 13.957031 -19.335938 C 15.25 -19.335938 16.136719 -18.65625 16.136719 -17.429688 C 16.136719 -14.09375 8.171875 -7.21875 4.492188 -7.21875 C 3.132812 -7.21875 2.246094 -7.964844 2.246094 -9.394531 Z M 2.246094 -9.394531 "/></g></g></g><g fill="#302e2a" fill-opacity="1"><g transform="translate(154.851241, 83.839411)"><g><path d="M -2.042969 -7.148438 C -2.042969 -4.902344 -0.410156 -3.609375 1.90625 -3.609375 C 4.832031 -3.609375 8.511719 -5.175781 13.140625 -10.554688 L 13.546875 -11.03125 C 13.820312 -11.371094 14.023438 -11.640625 14.023438 -11.984375 C 14.023438 -12.527344 13.480469 -13.003906 12.867188 -13.003906 C 12.59375 -13.003906 12.253906 -12.867188 11.984375 -12.59375 L 11.507812 -12.1875 C 9.804688 -10.757812 5.039062 -5.921875 2.65625 -5.921875 C 1.90625 -5.921875 1.363281 -6.398438 1.363281 -7.558594 C 1.363281 -7.828125 1.363281 -8.171875 1.429688 -8.304688 C 2.179688 -9.804688 5.175781 -14.023438 7.21875 -16.613281 L 8.917969 -18.722656 C 9.257812 -19.132812 9.394531 -19.609375 9.394531 -19.949219 C 9.394531 -20.765625 8.714844 -21.308594 7.964844 -21.308594 C 7.351562 -21.308594 6.605469 -20.96875 5.992188 -20.152344 L 4.289062 -17.972656 C 2.585938 -15.796875 -0.203125 -12.59375 -1.363281 -10.078125 C -1.839844 -8.988281 -2.042969 -8.035156 -2.042969 -7.148438 Z M 8.714844 -23.691406 C 8.714844 -22.738281 9.464844 -21.992188 10.417969 -21.992188 C 11.371094 -21.992188 12.1875 -22.738281 12.1875 -23.691406 C 12.1875 -24.644531 11.371094 -25.464844 10.417969 -25.464844 C 9.464844 -25.464844 8.714844 -24.644531 8.714844 -23.691406 Z M 8.714844 -23.691406 "/></g></g></g><g fill="#302e2a" fill-opacity="1"><g transform="translate(166.697678, 83.839411)"><g><path d="M -1.292969 -7.011719 C -1.292969 -4.425781 0.136719 -2.996094 2.449219 -2.996094 C 6.605469 -2.996094 12.050781 -7.21875 15.796875 -11.097656 C 16 -11.371094 16.203125 -11.574219 16.203125 -11.847656 C 16.203125 -12.460938 15.589844 -12.9375 14.910156 -12.9375 C 14.636719 -12.9375 14.367188 -12.800781 14.09375 -12.527344 C 10.621094 -9.054688 6.128906 -5.789062 3.609375 -5.789062 C 2.449219 -5.789062 1.972656 -6.46875 1.972656 -7.695312 C 1.972656 -10.6875 4.902344 -15.046875 7.21875 -17.089844 C 12.867188 -22.128906 17.566406 -26.074219 20.085938 -29.277344 C 21.921875 -31.660156 22.738281 -33.632812 22.738281 -35.0625 C 22.738281 -36.628906 21.855469 -37.515625 20.425781 -37.515625 C 18.65625 -37.515625 16.066406 -36.21875 13.277344 -33.089844 L 9.871094 -28.800781 C 6.128906 -23.761719 -1.292969 -12.9375 -1.292969 -7.011719 Z M 10.28125 -23.421875 L 12.800781 -27.027344 L 16.273438 -31.320312 C 17.972656 -33.226562 19.132812 -34.042969 19.609375 -34.042969 C 19.8125 -34.042969 19.949219 -33.90625 19.949219 -33.632812 C 19.949219 -31.453125 11.371094 -22.808594 10.28125 -22.808594 C 10.144531 -22.808594 10.078125 -22.875 10.078125 -23.011719 C 10.078125 -23.082031 10.144531 -23.285156 10.28125 -23.421875 Z M 10.28125 -23.421875 "/></g></g></g><g fill="#302e2a" fill-opacity="1"><g transform="translate(180.722771, 83.839411)"><g/></g></g><g fill="#302e2a" fill-opacity="1"><g transform="translate(204.415658, 83.839411)"><g><path d="M 5.789062 1.566406 C 12.253906 1.566406 19.199219 -6.398438 19.199219 -13.140625 L 19.199219 -13.820312 L 19.132812 -14.230469 C 18.722656 -16.679688 29.683594 -17.632812 31.660156 -17.632812 C 32.203125 -17.632812 32.75 -18.042969 32.816406 -18.65625 C 32.882812 -19.199219 32.40625 -19.675781 31.796875 -19.746094 L 30.707031 -19.8125 C 27.640625 -19.8125 23.214844 -18.996094 18.585938 -17.566406 C 18.449219 -17.632812 18.316406 -17.839844 18.042969 -18.722656 C 17.363281 -20.902344 16.542969 -23.082031 15.589844 -25.257812 C 13.957031 -28.9375 12.390625 -32.613281 12.390625 -36.015625 C 12.390625 -45.683594 25.121094 -51.132812 33.089844 -51.132812 C 36.085938 -51.132812 38.671875 -50.382812 40.101562 -48.679688 L 37.582031 -46.636719 C 35.949219 -45.277344 33.496094 -42.960938 33.496094 -40.578125 C 33.496094 -39.828125 33.703125 -39.082031 34.246094 -38.535156 L 34.519531 -38.261719 C 35.199219 -37.582031 36.015625 -37.308594 36.832031 -37.308594 C 40.238281 -37.308594 44.390625 -41.804688 44.390625 -46.230469 C 44.390625 -47.046875 44.253906 -47.863281 43.914062 -48.679688 L 47.863281 -51.132812 C 48.542969 -51.539062 48.882812 -51.949219 48.882812 -52.355469 C 48.882812 -52.902344 48.40625 -53.378906 47.863281 -53.378906 C 47.589844 -53.378906 47.25 -53.308594 46.839844 -53.039062 L 42.757812 -50.519531 C 40.714844 -53.171875 37.105469 -54.332031 33.089844 -54.332031 C 23.488281 -54.332031 9.125 -47.386719 9.125 -36.085938 C 9.125 -32.203125 10.824219 -28.117188 12.390625 -24.644531 C 13.753906 -21.582031 14.84375 -18.996094 15.386719 -16.476562 C 7.421875 -13.480469 0 -8.851562 0 -3.609375 C 0 -0.613281 2.382812 1.566406 5.789062 1.566406 Z M 2.585938 -3.675781 C 2.585938 -7.421875 12.050781 -13.277344 14.773438 -13.277344 C 15.523438 -13.277344 15.726562 -12.800781 15.726562 -12.117188 L 15.726562 -11.847656 C 15.183594 -7.148438 10.078125 -1.632812 5.445312 -1.632812 C 3.746094 -1.632812 2.585938 -2.382812 2.585938 -3.675781 Z M 35.609375 -40.578125 C 35.609375 -42.074219 37.921875 -44.253906 38.945312 -45.070312 L 41.054688 -46.773438 C 41.121094 -46.570312 41.121094 -46.433594 41.121094 -46.296875 C 41.121094 -44.253906 38.195312 -39.828125 36.152344 -39.828125 C 36.015625 -39.828125 35.949219 -39.898438 35.878906 -39.898438 C 35.742188 -40.101562 35.609375 -40.375 35.609375 -40.578125 Z M 35.609375 -40.578125 "/></g></g></g><g fill="#302e2a" fill-opacity="1"><g transform="translate(230.559524, 83.839411)"><g><path d="M -2.042969 -7.148438 C -2.042969 -4.902344 -0.410156 -3.609375 1.90625 -3.609375 C 4.832031 -3.609375 8.511719 -5.175781 13.140625 -10.554688 L 13.546875 -11.03125 C 13.820312 -11.371094 14.023438 -11.640625 14.023438 -11.984375 C 14.023438 -12.527344 13.480469 -13.003906 12.867188 -13.003906 C 12.59375 -13.003906 12.253906 -12.867188 11.984375 -12.59375 L 11.507812 -12.1875 C 9.804688 -10.757812 5.039062 -5.921875 2.65625 -5.921875 C 1.90625 -5.921875 1.363281 -6.398438 1.363281 -7.558594 C 1.363281 -7.828125 1.363281 -8.171875 1.429688 -8.304688 C 2.179688 -9.804688 5.175781 -14.023438 7.21875 -16.613281 L 8.917969 -18.722656 C 9.257812 -19.132812 9.394531 -19.609375 9.394531 -19.949219 C 9.394531 -20.765625 8.714844 -21.308594 7.964844 -21.308594 C 7.351562 -21.308594 6.605469 -20.96875 5.992188 -20.152344 L 4.289062 -17.972656 C 2.585938 -15.796875 -0.203125 -12.59375 -1.363281 -10.078125 C -1.839844 -8.988281 -2.042969 -8.035156 -2.042969 -7.148438 Z M 8.714844 -23.691406 C 8.714844 -22.738281 9.464844 -21.992188 10.417969 -21.992188 C 11.371094 -21.992188 12.1875 -22.738281 12.1875 -23.691406 C 12.1875 -24.644531 11.371094 -25.464844 10.417969 -25.464844 C 9.464844 -25.464844 8.714844 -24.644531 8.714844 -23.691406 Z M 8.714844 -23.691406 "/></g></g></g><g fill="#302e2a" fill-opacity="1"><g transform="translate(242.405949, 83.839411)"><g><path d="M -4.699219 -5.378906 C -4.699219 -4.5625 -4.015625 -3.8125 -3.132812 -3.8125 C -2.585938 -3.8125 -2.042969 -4.152344 -1.703125 -4.628906 L 3.675781 -12.390625 C 5.515625 -15.046875 9.941406 -18.792969 13.34375 -18.792969 C 14.296875 -18.792969 14.976562 -18.519531 14.976562 -17.703125 C 14.976562 -17.226562 14.84375 -16.613281 14.230469 -15.796875 L 11.300781 -11.710938 C 10.078125 -9.871094 9.53125 -8.238281 9.53125 -7.011719 C 9.53125 -5.039062 10.824219 -3.949219 12.800781 -3.949219 C 16.816406 -3.949219 21.242188 -8.441406 23.898438 -11.164062 C 24.101562 -11.4375 24.167969 -11.640625 24.167969 -11.914062 C 24.167969 -12.527344 23.625 -13.070312 23.011719 -13.070312 C 22.738281 -13.070312 22.535156 -12.9375 22.261719 -12.730469 L 21.855469 -12.390625 C 20.289062 -11.097656 15.453125 -6.332031 13.414062 -6.332031 C 12.9375 -6.332031 12.664062 -6.605469 12.664062 -7.148438 C 12.664062 -7.828125 13.070312 -9.054688 14.160156 -10.484375 L 15.523438 -12.324219 C 16.136719 -13.207031 16.816406 -13.957031 17.292969 -14.707031 C 18.042969 -15.863281 18.316406 -16.953125 18.316406 -17.839844 C 18.316406 -20.289062 16.339844 -21.515625 13.890625 -21.515625 C 12.867188 -21.515625 11.777344 -21.308594 10.6875 -20.832031 C 10.28125 -20.628906 10.007812 -20.5625 9.734375 -20.5625 C 9.464844 -20.5625 9.191406 -20.699219 9.054688 -21.105469 C 8.851562 -21.652344 8.304688 -21.855469 7.761719 -21.855469 C 7.285156 -21.855469 6.605469 -21.582031 6.128906 -20.902344 L 3.335938 -17.019531 C 0.75 -13.414062 -2.109375 -9.871094 -4.425781 -6.195312 C -4.628906 -5.921875 -4.699219 -5.652344 -4.699219 -5.378906 Z M -4.699219 -5.378906 "/></g></g></g><g fill="#302e2a" fill-opacity="1"><g transform="translate(264.396748, 83.839411)"><g><path d="M 7.082031 -3.539062 C 13.277344 -3.539062 18.585938 -6.671875 23.082031 -11.097656 C 23.351562 -11.371094 23.488281 -11.574219 23.488281 -11.847656 C 23.488281 -12.390625 22.808594 -12.9375 22.195312 -12.9375 C 21.921875 -12.9375 21.652344 -12.800781 21.378906 -12.59375 C 17.363281 -9.53125 13.34375 -6.128906 8.304688 -6.128906 C 5.582031 -6.128906 3.199219 -7.011719 3.199219 -9.53125 C 3.199219 -13.414062 9.191406 -18.519531 13.207031 -18.519531 C 14.367188 -18.519531 15.25 -18.109375 15.25 -17.429688 C 15.25 -17.089844 14.976562 -16.542969 14.367188 -16.136719 C 13.890625 -15.796875 13.683594 -15.453125 13.683594 -15.113281 C 13.683594 -14.636719 14.160156 -14.230469 14.910156 -14.230469 C 15.183594 -14.230469 15.523438 -14.296875 15.929688 -14.433594 C 17.769531 -15.726562 18.585938 -17.089844 18.585938 -18.246094 C 18.585938 -20.289062 16.273438 -21.785156 13.34375 -21.785156 C 7.285156 -21.785156 -0.75 -15.046875 -0.75 -8.988281 C -0.75 -5.105469 2.585938 -3.539062 7.082031 -3.539062 Z M 7.082031 -3.539062 "/></g></g></g><g fill="#302e2a" fill-opacity="1"><g transform="translate(285.706736, 83.839411)"><g><path d="M -4.765625 -5.242188 C -4.765625 -4.355469 -4.015625 -3.609375 -3.132812 -3.609375 C -2.65625 -3.609375 -2.109375 -3.878906 -1.839844 -4.289062 L 2.316406 -10.484375 C 4.355469 -12.9375 10.28125 -19.132812 13.546875 -19.132812 C 14.707031 -19.132812 15.25 -18.449219 15.25 -17.496094 C 15.25 -16.886719 14.976562 -16.136719 14.5 -15.453125 C 13.34375 -13.753906 11.914062 -11.574219 11.234375 -10.28125 C 10.554688 -8.988281 10.210938 -7.828125 10.210938 -6.945312 C 10.210938 -5.175781 11.507812 -4.152344 13.753906 -4.152344 C 16.613281 -4.152344 19.132812 -5.855469 24.167969 -11.097656 C 24.441406 -11.4375 24.644531 -11.710938 24.644531 -11.984375 C 24.644531 -12.527344 24.035156 -13.003906 23.421875 -13.003906 C 23.082031 -13.003906 22.738281 -12.867188 22.46875 -12.527344 C 20.5625 -10.144531 16.40625 -6.742188 14.773438 -6.742188 C 14.230469 -6.742188 13.753906 -7.011719 13.753906 -7.695312 C 13.753906 -8.035156 13.820312 -8.511719 14.230469 -9.125 L 17.632812 -14.433594 C 18.382812 -15.660156 18.722656 -16.816406 18.722656 -17.769531 C 18.722656 -20.085938 16.75 -21.515625 14.296875 -21.515625 C 13.003906 -21.515625 11.847656 -21.105469 10.757812 -20.492188 C 10.078125 -20.152344 9.394531 -19.746094 9.125 -19.746094 C 8.988281 -19.746094 8.917969 -19.8125 8.917969 -19.949219 C 8.917969 -20.015625 8.988281 -20.152344 9.054688 -20.222656 L 9.53125 -20.96875 C 10.484375 -22.46875 10.554688 -22.46875 12.527344 -23.691406 C 15.863281 -25.734375 19.199219 -27.710938 21.308594 -30.160156 C 22.671875 -31.796875 23.148438 -33.089844 23.148438 -34.179688 C 23.148438 -35.8125 22.058594 -37.039062 20.355469 -37.039062 C 18.925781 -37.039062 17.089844 -36.152344 15.113281 -33.972656 C 13.890625 -32.679688 12.527344 -30.773438 11.164062 -28.867188 L -4.492188 -6.128906 C -4.699219 -5.855469 -4.765625 -5.515625 -4.765625 -5.242188 Z M 13.890625 -27.097656 C 13.890625 -27.914062 18.449219 -33.703125 20.085938 -33.703125 C 20.425781 -33.703125 20.699219 -33.429688 20.699219 -33.089844 C 20.699219 -31.386719 14.910156 -26.960938 14.023438 -26.960938 C 13.890625 -26.960938 13.890625 -27.027344 13.890625 -27.097656 Z M 13.890625 -27.097656 "/></g></g></g><g fill="#302e2a" fill-opacity="1"><g transform="translate(308.106046, 83.839411)"><g><path d="M -1.566406 -7.964844 C -1.566406 -5.445312 0.203125 -3.609375 2.859375 -3.609375 C 3.949219 -3.609375 5.242188 -3.746094 6.605469 -4.628906 L 8.101562 -5.582031 C 9.125 -6.195312 10.007812 -6.742188 10.621094 -6.742188 C 10.960938 -6.742188 11.234375 -6.605469 11.371094 -6.265625 C 11.914062 -4.5625 13.546875 -3.539062 15.453125 -3.539062 C 19.609375 -3.539062 24.917969 -8.171875 28.117188 -10.960938 C 28.460938 -11.300781 28.664062 -11.710938 28.664062 -12.050781 C 28.664062 -12.59375 28.253906 -13.070312 27.640625 -13.070312 C 27.234375 -13.070312 26.824219 -12.867188 26.347656 -12.460938 C 24.578125 -10.960938 20.222656 -6.742188 17.089844 -6.742188 C 15.929688 -6.742188 15.660156 -7.351562 15.660156 -8.035156 C 15.660156 -10.960938 20.222656 -15.726562 21.992188 -17.089844 C 22.738281 -17.703125 22.945312 -18.179688 22.945312 -18.519531 C 22.945312 -19.335938 22.128906 -20.085938 21.242188 -20.085938 C 21.039062 -20.085938 20.832031 -20.015625 20.628906 -19.949219 C 19.335938 -19.949219 18.722656 -20.289062 17.90625 -20.628906 L 17.566406 -20.765625 C 16.40625 -21.242188 15.25 -21.652344 14.023438 -21.652344 C 8.171875 -21.652344 -1.566406 -13.753906 -1.566406 -7.964844 Z M 2.246094 -9.394531 C 2.246094 -13.546875 10.210938 -19.335938 13.957031 -19.335938 C 15.25 -19.335938 16.136719 -18.65625 16.136719 -17.429688 C 16.136719 -14.09375 8.171875 -7.21875 4.492188 -7.21875 C 3.132812 -7.21875 2.246094 -7.964844 2.246094 -9.394531 Z M 2.246094 -9.394531 "/></g></g></g><g fill="#302e2a" fill-opacity="1"><g transform="translate(334.522236, 83.839411)"><g><path d="M -4.699219 -5.378906 C -4.699219 -4.5625 -4.015625 -3.8125 -3.132812 -3.8125 C -2.585938 -3.8125 -2.042969 -4.152344 -1.703125 -4.628906 L 3.675781 -12.390625 C 5.515625 -15.046875 9.941406 -18.792969 13.34375 -18.792969 C 14.296875 -18.792969 14.976562 -18.519531 14.976562 -17.703125 C 14.976562 -17.226562 14.84375 -16.613281 14.230469 -15.796875 L 11.300781 -11.710938 C 10.078125 -9.871094 9.53125 -8.238281 9.53125 -7.011719 C 9.53125 -5.039062 10.824219 -3.949219 12.800781 -3.949219 C 16.816406 -3.949219 21.242188 -8.441406 23.898438 -11.164062 C 24.101562 -11.4375 24.167969 -11.640625 24.167969 -11.914062 C 24.167969 -12.527344 23.625 -13.070312 23.011719 -13.070312 C 22.738281 -13.070312 22.535156 -12.9375 22.261719 -12.730469 L 21.855469 -12.390625 C 20.289062 -11.097656 15.453125 -6.332031 13.414062 -6.332031 C 12.9375 -6.332031 12.664062 -6.605469 12.664062 -7.148438 C 12.664062 -7.828125 13.070312 -9.054688 14.160156 -10.484375 L 15.523438 -12.324219 C 16.136719 -13.207031 16.816406 -13.957031 17.292969 -14.707031 C 18.042969 -15.863281 18.316406 -16.953125 18.316406 -17.839844 C 18.316406 -20.289062 16.339844 -21.515625 13.890625 -21.515625 C 12.867188 -21.515625 11.777344 -21.308594 10.6875 -20.832031 C 10.28125 -20.628906 10.007812 -20.5625 9.734375 -20.5625 C 9.464844 -20.5625 9.191406 -20.699219 9.054688 -21.105469 C 8.851562 -21.652344 8.304688 -21.855469 7.761719 -21.855469 C 7.285156 -21.855469 6.605469 -21.582031 6.128906 -20.902344 L 3.335938 -17.019531 C 0.75 -13.414062 -2.109375 -9.871094 -4.425781 -6.195312 C -4.628906 -5.921875 -4.699219 -5.652344 -4.699219 -5.378906 Z M -4.699219 -5.378906 "/></g></g></g><g fill="#302e2a" fill-opacity="1"><g transform="translate(76.405051, 113.517192)"><g><path d="M 3.328125 -5.53125 L 3.328125 -1.703125 C 3.328125 -1.148438 3.175781 -0.71875 2.875 -0.40625 C 2.570312 -0.101562 2.148438 0.046875 1.609375 0.046875 C 0.953125 0.046875 0.410156 -0.21875 -0.015625 -0.75 L 0.421875 -1.46875 C 0.796875 -1.0625 1.191406 -0.859375 1.609375 -0.859375 C 1.859375 -0.859375 2.050781 -0.929688 2.1875 -1.078125 C 2.320312 -1.234375 2.390625 -1.453125 2.390625 -1.734375 L 2.390625 -4.6875 L 0.484375 -4.6875 L 0.484375 -5.53125 Z M 3.328125 -5.53125 "/></g></g></g><g fill="#302e2a" fill-opacity="1"><g transform="translate(86.648092, 113.517192)"><g><path d="M 5.421875 -5.53125 L 5.421875 -2.28125 C 5.421875 -1.5625 5.207031 -0.992188 4.78125 -0.578125 C 4.351562 -0.160156 3.765625 0.046875 3.015625 0.046875 C 2.273438 0.046875 1.6875 -0.160156 1.25 -0.578125 C 0.820312 -0.992188 0.609375 -1.5625 0.609375 -2.28125 L 0.609375 -5.53125 L 1.546875 -5.53125 L 1.546875 -2.28125 C 1.546875 -1.820312 1.675781 -1.457031 1.9375 -1.1875 C 2.207031 -0.925781 2.570312 -0.796875 3.03125 -0.796875 C 3.476562 -0.796875 3.832031 -0.925781 4.09375 -1.1875 C 4.351562 -1.457031 4.484375 -1.820312 4.484375 -2.28125 L 4.484375 -5.53125 Z M 5.421875 -5.53125 "/></g></g></g><g fill="#302e2a" fill-opacity="1"><g transform="translate(98.980318, 113.517192)"><g><path d="M 5.515625 0 L 4.59375 0 L 1.65625 -3.96875 L 1.65625 0 L 0.71875 0 L 0.71875 -5.53125 L 1.640625 -5.53125 L 4.59375 -1.546875 L 4.59375 -5.53125 L 5.515625 -5.53125 Z M 5.515625 0 "/></g></g></g><g fill="#302e2a" fill-opacity="1"><g transform="translate(111.533287, 113.517192)"><g><path d="M 1.65625 0 L 0.71875 0 L 0.71875 -5.53125 L 1.65625 -5.53125 Z M 1.65625 0 "/></g></g></g><g fill="#302e2a" fill-opacity="1"><g transform="translate(120.223233, 113.517192)"><g><path d="M 1.109375 -4.75 C 1.671875 -5.28125 2.363281 -5.546875 3.1875 -5.546875 C 4.019531 -5.546875 4.71875 -5.28125 5.28125 -4.75 C 5.84375 -4.21875 6.125 -3.554688 6.125 -2.765625 C 6.125 -1.972656 5.84375 -1.304688 5.28125 -0.765625 C 4.71875 -0.222656 4.019531 0.046875 3.1875 0.046875 C 2.363281 0.046875 1.671875 -0.222656 1.109375 -0.765625 C 0.546875 -1.304688 0.265625 -1.972656 0.265625 -2.765625 C 0.265625 -3.554688 0.546875 -4.21875 1.109375 -4.75 Z M 3.203125 -4.703125 C 2.660156 -4.703125 2.191406 -4.515625 1.796875 -4.140625 C 1.410156 -3.765625 1.21875 -3.300781 1.21875 -2.75 C 1.21875 -2.207031 1.410156 -1.742188 1.796875 -1.359375 C 2.191406 -0.984375 2.660156 -0.796875 3.203125 -0.796875 C 3.742188 -0.796875 4.207031 -0.984375 4.59375 -1.359375 C 4.976562 -1.742188 5.171875 -2.207031 5.171875 -2.75 C 5.171875 -3.300781 4.976562 -3.765625 4.59375 -4.140625 C 4.207031 -4.515625 3.742188 -4.703125 3.203125 -4.703125 Z M 3.203125 -4.703125 "/></g></g></g><g fill="#302e2a" fill-opacity="1"><g transform="translate(132.918112, 113.517192)"><g><path d="M 4.234375 0 L 3.21875 -1.671875 C 3.164062 -1.671875 3.082031 -1.671875 2.96875 -1.671875 L 1.65625 -1.671875 L 1.65625 0 L 0.71875 0 L 0.71875 -5.53125 L 2.96875 -5.53125 C 3.675781 -5.53125 4.222656 -5.363281 4.609375 -5.03125 C 4.992188 -4.695312 5.1875 -4.234375 5.1875 -3.640625 C 5.1875 -3.191406 5.085938 -2.816406 4.890625 -2.515625 C 4.691406 -2.210938 4.410156 -1.988281 4.046875 -1.84375 L 5.28125 0 Z M 1.65625 -2.5 L 2.96875 -2.5 C 3.863281 -2.5 4.3125 -2.867188 4.3125 -3.609375 C 4.3125 -4.328125 3.863281 -4.6875 2.96875 -4.6875 L 1.65625 -4.6875 Z M 1.65625 -2.5 "/></g></g></g><g fill="#302e2a" fill-opacity="1"><g transform="translate(144.927101, 113.517192)"><g/></g></g><g fill="#302e2a" fill-opacity="1"><g transform="translate(153.270165, 113.517192)"><g><path d="M 6.40625 0 L 5.453125 0 L 4.140625 -4.3125 L 2.8125 0 L 1.859375 0 L 0.03125 -5.53125 L 1.03125 -5.53125 L 2.375 -1.03125 L 3.703125 -5.515625 L 4.609375 -5.53125 L 5.953125 -1.03125 L 7.296875 -5.53125 L 8.25 -5.53125 Z M 6.40625 0 "/></g></g></g><g fill="#302e2a" fill-opacity="1"><g transform="translate(167.746762, 113.517192)"><g><path d="M 4.671875 -4.6875 L 1.65625 -4.6875 L 1.65625 -3.203125 L 4.359375 -3.203125 L 4.359375 -2.359375 L 1.65625 -2.359375 L 1.65625 -0.84375 L 4.765625 -0.84375 L 4.765625 0 L 0.71875 0 L 0.71875 -5.53125 L 4.671875 -5.53125 Z M 4.671875 -4.6875 "/></g></g></g><g fill="#302e2a" fill-opacity="1"><g transform="translate(179.227547, 113.517192)"><g><path d="M 0.71875 -5.53125 L 3.125 -5.53125 C 3.695312 -5.53125 4.148438 -5.40625 4.484375 -5.15625 C 4.816406 -4.914062 4.984375 -4.578125 4.984375 -4.140625 C 4.984375 -3.828125 4.894531 -3.5625 4.71875 -3.34375 C 4.539062 -3.125 4.304688 -2.976562 4.015625 -2.90625 C 4.378906 -2.84375 4.664062 -2.6875 4.875 -2.4375 C 5.082031 -2.195312 5.1875 -1.890625 5.1875 -1.515625 C 5.1875 -1.046875 5.007812 -0.675781 4.65625 -0.40625 C 4.300781 -0.132812 3.8125 0 3.1875 0 L 0.71875 0 Z M 1.65625 -4.6875 L 1.65625 -3.234375 L 3.078125 -3.234375 C 3.367188 -3.234375 3.597656 -3.296875 3.765625 -3.421875 C 3.941406 -3.554688 4.03125 -3.738281 4.03125 -3.96875 C 4.03125 -4.207031 3.945312 -4.382812 3.78125 -4.5 C 3.613281 -4.625 3.378906 -4.6875 3.078125 -4.6875 Z M 1.65625 -2.421875 L 1.65625 -0.828125 L 3.078125 -0.828125 C 3.441406 -0.828125 3.722656 -0.894531 3.921875 -1.03125 C 4.128906 -1.175781 4.234375 -1.378906 4.234375 -1.640625 C 4.234375 -1.878906 4.128906 -2.066406 3.921875 -2.203125 C 3.722656 -2.347656 3.441406 -2.421875 3.078125 -2.421875 Z M 1.65625 -2.421875 "/></g></g></g><g fill="#302e2a" fill-opacity="1"><g transform="translate(191.102521, 113.517192)"><g/></g></g><g fill="#302e2a" fill-opacity="1"><g transform="translate(199.445591, 113.517192)"><g><path d="M 0.71875 -5.53125 L 2.984375 -5.53125 C 3.816406 -5.53125 4.5 -5.269531 5.03125 -4.75 C 5.570312 -4.226562 5.84375 -3.566406 5.84375 -2.765625 C 5.84375 -1.960938 5.570312 -1.300781 5.03125 -0.78125 C 4.488281 -0.257812 3.800781 0 2.96875 0 L 0.71875 0 Z M 1.65625 -4.6875 L 1.65625 -0.84375 L 3.015625 -0.84375 C 3.554688 -0.84375 4.003906 -1.019531 4.359375 -1.375 C 4.722656 -1.738281 4.90625 -2.195312 4.90625 -2.75 C 4.90625 -3.3125 4.71875 -3.773438 4.34375 -4.140625 C 3.976562 -4.503906 3.519531 -4.6875 2.96875 -4.6875 Z M 1.65625 -4.6875 "/></g></g></g><g fill="#302e2a" fill-opacity="1"><g transform="translate(211.864537, 113.517192)"><g><path d="M 4.671875 -4.6875 L 1.65625 -4.6875 L 1.65625 -3.203125 L 4.359375 -3.203125 L 4.359375 -2.359375 L 1.65625 -2.359375 L 1.65625 -0.84375 L 4.765625 -0.84375 L 4.765625 0 L 0.71875 0 L 0.71875 -5.53125 L 4.671875 -5.53125 Z M 4.671875 -4.6875 "/></g></g></g><g fill="#302e2a" fill-opacity="1"><g transform="translate(223.345327, 113.517192)"><g><path d="M 3.1875 0 L 2.21875 0 L 0.03125 -5.53125 L 1.03125 -5.53125 L 2.734375 -1.03125 L 4.453125 -5.53125 L 5.421875 -5.53125 Z M 3.1875 0 "/></g></g></g><g fill="#302e2a" fill-opacity="1"><g transform="translate(235.094161, 113.517192)"><g><path d="M 4.671875 -4.6875 L 1.65625 -4.6875 L 1.65625 -3.203125 L 4.359375 -3.203125 L 4.359375 -2.359375 L 1.65625 -2.359375 L 1.65625 -0.84375 L 4.765625 -0.84375 L 4.765625 0 L 0.71875 0 L 0.71875 -5.53125 L 4.671875 -5.53125 Z M 4.671875 -4.6875 "/></g></g></g><g fill="#302e2a" fill-opacity="1"><g transform="translate(246.574951, 113.517192)"><g><path d="M 1.65625 -0.84375 L 4.046875 -0.84375 L 4.046875 0 L 0.71875 0 L 0.71875 -5.53125 L 1.65625 -5.53125 Z M 1.65625 -0.84375 "/></g></g></g><g fill="#302e2a" fill-opacity="1"><g transform="translate(257.09392, 113.517192)"><g><path d="M 1.109375 -4.75 C 1.671875 -5.28125 2.363281 -5.546875 3.1875 -5.546875 C 4.019531 -5.546875 4.71875 -5.28125 5.28125 -4.75 C 5.84375 -4.21875 6.125 -3.554688 6.125 -2.765625 C 6.125 -1.972656 5.84375 -1.304688 5.28125 -0.765625 C 4.71875 -0.222656 4.019531 0.046875 3.1875 0.046875 C 2.363281 0.046875 1.671875 -0.222656 1.109375 -0.765625 C 0.546875 -1.304688 0.265625 -1.972656 0.265625 -2.765625 C 0.265625 -3.554688 0.546875 -4.21875 1.109375 -4.75 Z M 3.203125 -4.703125 C 2.660156 -4.703125 2.191406 -4.515625 1.796875 -4.140625 C 1.410156 -3.765625 1.21875 -3.300781 1.21875 -2.75 C 1.21875 -2.207031 1.410156 -1.742188 1.796875 -1.359375 C 2.191406 -0.984375 2.660156 -0.796875 3.203125 -0.796875 C 3.742188 -0.796875 4.207031 -0.984375 4.59375 -1.359375 C 4.976562 -1.742188 5.171875 -2.207031 5.171875 -2.75 C 5.171875 -3.300781 4.976562 -3.765625 4.59375 -4.140625 C 4.207031 -4.515625 3.742188 -4.703125 3.203125 -4.703125 Z M 3.203125 -4.703125 "/></g></g></g><g fill="#302e2a" fill-opacity="1"><g transform="translate(269.788802, 113.517192)"><g><path d="M 0.71875 -5.53125 L 2.921875 -5.53125 C 3.617188 -5.53125 4.15625 -5.363281 4.53125 -5.03125 C 4.914062 -4.695312 5.109375 -4.234375 5.109375 -3.640625 C 5.109375 -3.015625 4.914062 -2.53125 4.53125 -2.1875 C 4.15625 -1.84375 3.617188 -1.671875 2.921875 -1.671875 L 1.65625 -1.671875 L 1.65625 0 L 0.71875 0 Z M 1.65625 -4.6875 L 1.65625 -2.5 L 2.890625 -2.5 C 3.773438 -2.5 4.21875 -2.867188 4.21875 -3.609375 C 4.21875 -4.328125 3.773438 -4.6875 2.890625 -4.6875 Z M 1.65625 -4.6875 "/></g></g></g><g fill="#302e2a" fill-opacity="1"><g transform="translate(281.403607, 113.517192)"><g><path d="M 4.671875 -4.6875 L 1.65625 -4.6875 L 1.65625 -3.203125 L 4.359375 -3.203125 L 4.359375 -2.359375 L 1.65625 -2.359375 L 1.65625 -0.84375 L 4.765625 -0.84375 L 4.765625 0 L 0.71875 0 L 0.71875 -5.53125 L 4.671875 -5.53125 Z M 4.671875 -4.6875 "/></g></g></g><g fill="#302e2a" fill-opacity="1"><g transform="translate(292.884385, 113.517192)"><g><path d="M 4.234375 0 L 3.21875 -1.671875 C 3.164062 -1.671875 3.082031 -1.671875 2.96875 -1.671875 L 1.65625 -1.671875 L 1.65625 0 L 0.71875 0 L 0.71875 -5.53125 L 2.96875 -5.53125 C 3.675781 -5.53125 4.222656 -5.363281 4.609375 -5.03125 C 4.992188 -4.695312 5.1875 -4.234375 5.1875 -3.640625 C 5.1875 -3.191406 5.085938 -2.816406 4.890625 -2.515625 C 4.691406 -2.210938 4.410156 -1.988281 4.046875 -1.84375 L 5.28125 0 Z M 1.65625 -2.5 L 2.96875 -2.5 C 3.863281 -2.5 4.3125 -2.867188 4.3125 -3.609375 C 4.3125 -4.328125 3.863281 -4.6875 2.96875 -4.6875 L 1.65625 -4.6875 Z M 1.65625 -2.5 "/></g></g></g></svg>